<svg width="180" height="56" viewBox="0 0 180 56" fill="none" xmlns="http://www.w3.org/2000/svg">
<path d="M2.016 23H5.712V17.96H8.52C12.288 17.96 15.312 15.944 15.312 12.056V12.008C15.312 8.576 12.888 6.2 8.88 6.2H2.016V23ZM5.712 14.672V9.536H8.568C10.416 9.536 11.568 10.424 11.568 12.08V12.128C11.568 13.568 10.488 14.672 8.64 14.672H5.712ZM17.7353 8.72H21.5753V5.48H17.7353V8.72ZM17.8313 23H21.4793V10.136H17.8313V23ZM24.9054 23H28.5534V15.824C28.5534 14.096 29.4414 13.208 30.8334 13.208C32.2254 13.208 33.0414 14.096 33.0414 15.824V23H36.6894V14.672C36.6894 11.72 35.0814 9.896 32.3214 9.896C30.4734 9.896 29.3934 10.88 28.5534 11.96V10.136H24.9054V23ZM45.6186 26.888C48.1146 26.888 49.9626 26.36 51.1626 25.16C52.2426 24.08 52.7946 22.4 52.7946 20.096V10.136H49.1466V11.816C48.1626 10.736 46.9866 9.896 44.9946 9.896C42.0426 9.896 39.2826 12.056 39.2826 15.896V15.944C39.2826 19.76 41.9946 21.944 44.9946 21.944C46.9386 21.944 48.1146 21.152 49.1946 19.856V20.48C49.1946 22.784 48.0186 23.984 45.5226 23.984C43.8186 23.984 42.4986 23.552 41.1786 22.808L39.9306 25.544C41.5626 26.408 43.5306 26.888 45.6186 26.888ZM46.0506 18.92C44.2746 18.92 42.9306 17.72 42.9306 15.944V15.896C42.9306 14.144 44.2746 12.92 46.0506 12.92C47.8266 12.92 49.1946 14.144 49.1946 15.896V15.944C49.1946 17.696 47.8266 18.92 46.0506 18.92ZM64.5979 23.288C69.7819 23.288 73.5499 19.376 73.5499 14.6V14.552C73.5499 9.776 69.8299 5.912 64.6459 5.912C59.4619 5.912 55.6939 9.824 55.6939 14.6V14.648C55.6939 19.424 59.4139 23.288 64.5979 23.288ZM64.6459 19.88C61.6699 19.88 59.5579 17.48 59.5579 14.6V14.552C59.5579 11.672 61.6219 9.32 64.5979 9.32C67.5739 9.32 69.6859 11.72 69.6859 14.6V14.648C69.6859 17.528 67.6219 19.88 64.6459 19.88ZM76.4445 23H80.0925V15.824C80.0925 14.096 80.9805 13.208 82.3725 13.208C83.7645 13.208 84.5805 14.096 84.5805 15.824V23H88.2285V14.672C88.2285 11.72 86.6205 9.896 83.8605 9.896C82.0125 9.896 80.9325 10.88 80.0925 11.96V10.136H76.4445V23ZM97.4936 23.288C99.8216 23.288 101.55 22.376 102.75 20.888L100.662 19.04C99.6536 19.976 98.7656 20.36 97.5416 20.36C95.9096 20.36 94.7576 19.496 94.3976 17.84H103.35C103.374 17.504 103.398 17.168 103.398 16.88C103.398 13.232 101.43 9.896 97.1336 9.896C93.3896 9.896 90.7736 12.92 90.7736 16.592V16.64C90.7736 20.576 93.6296 23.288 97.4936 23.288ZM94.3496 15.56C94.6376 13.904 95.6216 12.824 97.1336 12.824C98.6696 12.824 99.6296 13.928 99.8456 15.56H94.3496ZM10.056 51.288C13.104 51.288 15.024 50.112 16.776 48.336L15.528 47.112C13.92 48.648 12.408 49.536 10.104 49.536C6.408 49.536 3.6 46.488 3.6 42.6V42.552C3.6 38.688 6.384 35.664 10.104 35.664C12.384 35.664 13.968 36.624 15.384 37.968L16.68 36.576C15 34.992 13.176 33.912 10.128 33.912C5.184 33.912 1.632 37.848 1.632 42.6V42.648C1.632 47.472 5.208 51.288 10.056 51.288ZM20.0445 51H21.8925V33.48H20.0445V51ZM31.8452 51.288C35.5892 51.288 38.3492 48.312 38.3492 44.808V44.76C38.3492 41.256 35.6132 38.328 31.8932 38.328C28.1492 38.328 25.4132 41.304 25.4132 44.808V44.856C25.4132 48.36 28.1252 51.288 31.8452 51.288ZM31.8932 49.632C29.2772 49.632 27.3092 47.472 27.3092 44.808V44.76C27.3092 42.144 29.1572 39.96 31.8452 39.96C34.4612 39.96 36.4532 42.144 36.4532 44.808V44.856C36.4532 47.472 34.5812 49.632 31.8932 49.632ZM46.2568 51.264C48.3928 51.264 49.6648 50.184 50.5048 48.84V51H52.3288V38.592H50.5048V45.696C50.5048 48.024 48.8968 49.584 46.7848 49.584C44.6008 49.584 43.3528 48.144 43.3528 45.84V38.592H41.5048V46.296C41.5048 49.248 43.2568 51.264 46.2568 51.264ZM61.6939 51.264C63.9739 51.264 65.4379 49.992 66.4459 48.504V51H68.2939V33.48H66.4459V40.968C65.4859 39.576 63.9979 38.328 61.6939 38.328C58.7179 38.328 55.7659 40.728 55.7659 44.784V44.832C55.7659 48.912 58.7179 51.264 61.6939 51.264ZM62.0299 49.608C59.6779 49.608 57.6619 47.736 57.6619 44.808V44.76C57.6619 41.76 59.6299 39.984 62.0299 39.984C64.3339 39.984 66.5179 41.904 66.5179 44.76V44.808C66.5179 47.664 64.3339 49.608 62.0299 49.608ZM79.9307 51H81.8267V45.072H85.9067C89.4827 45.072 92.5067 43.2 92.5067 39.576V39.528C92.5067 36.216 90.0107 34.2 86.2187 34.2H79.9307V51ZM81.8267 43.344V35.952H86.0747C88.7867 35.952 90.5867 37.2 90.5867 39.6V39.648C90.5867 41.856 88.7627 43.344 85.9787 43.344H81.8267ZM95.8179 51H97.6659V33.48H95.8179V51ZM105.651 51.264C107.835 51.264 109.275 50.256 110.139 49.128V51H111.915V43.416C111.915 41.832 111.483 40.632 110.643 39.792C109.731 38.88 108.387 38.424 106.635 38.424C104.835 38.424 103.491 38.832 102.123 39.456L102.675 40.968C103.827 40.44 104.979 40.056 106.443 40.056C108.771 40.056 110.139 41.208 110.139 43.44V43.872C109.035 43.56 107.907 43.344 106.323 43.344C103.179 43.344 101.019 44.736 101.019 47.352V47.4C101.019 49.944 103.347 51.264 105.651 51.264ZM106.011 49.8C104.331 49.8 102.891 48.888 102.891 47.328V47.28C102.891 45.72 104.187 44.712 106.515 44.712C108.027 44.712 109.251 44.976 110.163 45.24V46.44C110.163 48.408 108.291 49.8 106.011 49.8ZM119.888 51.216C120.776 51.216 121.472 51.024 122.12 50.688V49.104C121.472 49.416 120.944 49.536 120.32 49.536C119.072 49.536 118.232 48.984 118.232 47.472V40.224H122.168V38.592H118.232V34.848H116.384V38.592H114.656V40.224H116.384V47.712C116.384 50.232 117.896 51.216 119.888 51.216ZM126.135 51H127.983V40.224H131.895V38.64H127.959V37.632C127.959 35.856 128.679 34.992 130.119 34.992C130.743 34.992 131.247 35.112 131.919 35.304V33.696C131.319 33.48 130.743 33.384 129.879 33.384C128.751 33.384 127.839 33.72 127.215 34.344C126.519 35.04 126.135 36.12 126.135 37.536V38.616H124.431V40.224H126.135V51ZM139.681 51.288C143.425 51.288 146.185 48.312 146.185 44.808V44.76C146.185 41.256 143.449 38.328 139.729 38.328C135.985 38.328 133.249 41.304 133.249 44.808V44.856C133.249 48.36 135.961 51.288 139.681 51.288ZM139.729 49.632C137.113 49.632 135.145 47.472 135.145 44.808V44.76C135.145 42.144 136.993 39.96 139.681 39.96C142.297 39.96 144.289 42.144 144.289 44.808V44.856C144.289 47.472 142.417 49.632 139.729 49.632ZM149.533 51H151.381V46.056C151.381 42.312 153.589 40.368 156.301 40.368H156.445V38.376C154.093 38.28 152.293 39.768 151.381 41.832V38.592H149.533V51ZM159.259 51H161.107V43.92C161.107 41.64 162.595 40.008 164.563 40.008C166.531 40.008 167.755 41.376 167.755 43.704V51H169.579V43.848C169.579 41.4 171.139 40.008 173.011 40.008C175.027 40.008 176.227 41.352 176.227 43.752V51H178.075V43.32C178.075 40.248 176.323 38.328 173.467 38.328C171.307 38.328 169.987 39.432 169.099 40.8C168.427 39.408 167.131 38.328 165.115 38.328C163.027 38.328 161.923 39.456 161.107 40.68V38.592H159.259V51Z" fill="#051727"/>
</svg>
